<svg id="Capa_1" enable-background="new 0 0 512 512" height="512" viewBox="0 0 512 512" width="512" xmlns="http://www.w3.org/2000/svg"><g><path d="m256 22c-110.694 0-204.227 73.418-234.6 174.21l1.052 1h119.548c2.206 0 4 1.794 4 4v28.79h7c2.206 0 4 1.794 4 4v124c0 2.206-1.794 4-4 4h-121.303l-1.166 1c5.503 12.904 12.083 25.243 19.623 36.898l1.363.234c21.41-15.79 46.798-24.132 73.483-24.132 27.317 0 53.226 8.712 74.925 25.194 2.73 2.074 6.131 3.216 9.575 3.216s6.844-1.142 9.575-3.216c21.699-16.482 47.609-25.194 74.925-25.194 12.14 0 24.143 1.755 35.674 5.216 1.495.448 3.042.676 4.601.676 4.348 0 8.535-1.796 11.486-4.926 23.684-25.128 55.732-38.966 90.239-38.966 17.395 0 34.222 3.54 50.03 10.523l1.25-.538c8.877-25.352 13.72-52.601 13.72-80.985 0-135.31-109.69-245-245-245z" fill="#fff3de"/><path d="m162.475 206.063h-16.475v23.937h7c2.206 0 4 1.794 4 4v5.917h18.979l.074-.943c.526-6.715 6.213-11.974 12.947-11.974 1.33 0 2.646.202 3.913.601l1.094.345.192-1.131c.691-4.075 3.216-7.413 6.64-9.257-11.162-7.339-24.421-11.495-38.364-11.495z" fill="#fed2a4"/><path d="m147 230v-28.79c0-2.761-2.239-5-5-5h-120.6c-3.207 10.643-5.704 21.592-7.452 32.79l4.158 1z" fill="#d7aa02"/><path d="m436 337c-35.853 0-68.174 15.098-90.967 39.279-3.845 4.08-9.702 5.59-15.071 3.978-11.389-3.417-23.46-5.257-35.962-5.257-28.38 0-54.549 9.461-75.53 25.398-5.288 4.017-12.651 4.017-17.94 0-20.981-15.937-47.15-25.398-75.53-25.398-28.077 0-53.981 9.268-74.846 24.897 4.167 6.44 8.629 12.671 13.364 18.676l1.625.439c14.145-5.432 29.001-8.185 44.177-8.185 4.541 0 9.147.253 13.689.753 27.153 2.986 51.955 14.478 71.722 33.234 2.949 2.798 6.823 4.339 10.908 4.339 2.866 0 5.677-.777 8.127-2.246 19.212-11.519 41.179-17.607 63.525-17.607 4.546 0 9.157.253 13.705.754 12.066 1.327 23.805 4.383 34.89 9.083 1.988.843 4.09 1.271 6.246 1.271 3.753 0 7.379-1.327 10.209-3.737 22.431-19.102 50.933-29.621 80.254-29.621 4.546 0 9.157.254 13.704.754 5.621.618 11.265 1.636 16.799 3.029l1.673-.601c13.644-18.904 24.658-39.831 32.507-62.246-15.647-7.05-33.001-10.986-51.278-10.986z" fill="#f6a96c"/><g><path d="m256 512c81.83 0 154.277-40.127 198.772-101.768-5.942-1.57-12.068-2.729-18.363-3.422-35.638-3.919-69.416 7.556-94.716 29.1-4.268 3.635-10.255 4.496-15.416 2.307-10.947-4.642-22.744-7.791-35.171-9.157-28.21-3.103-55.256 3.441-77.854 16.989-5.696 3.415-13.015 2.61-17.832-1.961-19.114-18.135-44.091-30.4-72.301-33.502-20.964-2.306-41.281.723-59.609 7.99 44.865 56.896 114.41 93.424 192.49 93.424z" fill="#d88a55"/></g><path d="m305.353 336.76h-19.84c1.927 8.16 9.239 14.24 17.987 14.24 9.865 0 17.903-7.728 18.447-17.456-5.202 2.106-10.812 3.216-16.594 3.216z" fill="#c57a44"/><g><g><path d="m292.753 71.123c-20.532 20.532-30.613 47.556-30.25 74.465.026 1.926 1.571 3.471 3.498 3.498 26.909.364 53.933-9.717 74.465-30.25s30.613-47.556 30.25-74.465c-.026-1.926-1.571-3.471-3.498-3.498-26.909-.363-53.933 9.718-74.465 30.25z" fill="#8bc727"/></g><g><path d="m367.218 40.873c-26.909-.364-53.933 9.717-74.465 30.25-16.507 16.507-26.252 37.209-29.253 58.674v7.685l16.734-16.734c4.996-13.763 12.988-26.683 24.025-37.721 18.431-18.43 42.093-28.434 66.207-30.027.2-2.873.288-5.751.249-8.63-.025-1.926-1.57-3.471-3.497-3.497z" fill="#81b823"/></g><g><path d="m171.534 77.972c20.532 20.532 47.556 30.613 74.465 30.25 1.926-.026 3.471-1.571 3.498-3.498.364-26.909-9.717-53.933-30.25-74.465s-47.556-30.613-74.465-30.249c-1.926.026-3.471 1.571-3.498 3.498-.363 26.908 9.718 53.932 30.25 74.464z" fill="#8bc727"/></g><g><path d="m218.524 87.856c-12.513-5.041-24.24-12.626-34.381-22.768-18.065-18.065-28.036-41.156-29.924-64.772-3.14-.243-6.289-.349-9.437-.307-1.926.026-3.471 1.571-3.497 3.498-.364 26.909 9.717 53.933 30.25 74.465 18.683 18.683 42.742 28.71 67.197 30.091z" fill="#81b823"/></g><path d="m248.5 117.832v37.755.005 35.095c2.459-.386 4.964-.591 7.5-.591s5.041.205 7.5.591v-31.991l71.279-71.279c2.929-2.929 2.929-7.678 0-10.606-2.929-2.929-7.678-2.929-10.606 0l-60.673 60.671v-22.755c0-.002 0-.003 0-.005v-52.843c0-4.142-3.358-7.5-7.5-7.5s-7.5 3.358-7.5 7.5v34.739l-60.673-60.673c-2.929-2.929-7.678-2.929-10.606 0-2.929 2.929-2.929 7.678 0 10.606z" fill="#78a91f"/></g><g><path d="m321.009 231.323 1.011-.155c.745-.114 1.374-.167 1.98-.167 6.938 0 12.633 5.433 12.967 12.369l.037.768.751.162c.249.054.49.125.733.192l24.855-18.85c-.844-2.919-2.504-5.643-5.003-7.777-5.768-4.924-14.187-5.167-20.229-.584l-17.229 13.067z" fill="#f6a96c"/></g><path d="m337.755 244.299c5.936 1.281 10.245 6.623 10.245 12.701 0 .814-.085 1.621-.234 2.416l43.231-32.786c-.913-1.665-2.12-3.206-3.656-4.517-5.768-4.924-14.187-5.167-20.229-.584l-29.876 22.658z" fill="#ffbd86"/><g><path d="m225.321 263.397.299.342h59.667c10.56 0 19.23 8.178 20.05 18.532h12.292l31.276-23.719c.057-.51.095-1.026.095-1.552 0-6.714-4.728-12.317-11.034-13.678-.357-7.415-6.463-13.322-13.966-13.322-.727 0-1.435.072-2.132.179-.894-6.869-6.755-12.179-13.868-12.179-.894 0-1.766.092-2.613.253l-14.969-14.929c-19.023-18.972-49.812-18.972-68.835 0l-11.962 11.93c-.85-.161-1.724-.254-2.62-.254-6.929 0-12.666 5.038-13.787 11.648-1.33-.419-2.744-.648-4.213-.648-7.696 0-13.937 6.211-13.995 13.894 19.299.429 37.567 8.926 50.315 23.503z" fill="#c57a44"/></g><path d="m411.34 225.873c-5.768-4.924-14.187-5.167-20.229-.584l-73.818 55.983h-12.062c.111.853.187 1.716.187 2.599 0 11.1-9.031 20.13-20.131 20.13h-128.287v33.76h148.352c11.985 0 23.48-4.761 31.955-13.236l74.966-74.966c6.656-6.658 6.226-17.575-.933-23.686z" fill="#fed2a4"/><path d="m285.287 262.739h-59.213c-13.04-14.909-32.085-23.886-52.6-23.886h-16.474v66.147h128.287c11.67 0 21.131-9.46 21.131-21.13 0-11.671-9.461-21.131-21.131-21.131z" fill="#ffe5c2"/><g><path d="m153 229h-139.063c-1.929 12.385-2.937 25.074-2.937 38 0 34.073 6.962 66.518 19.531 96h122.469c2.761 0 5-2.239 5-5v-124c0-2.761-2.239-5-5-5z" fill="#fac600"/></g><path d="m40 287c0-8.243.41-16.389 1.207-24.422.764-7.697 7.206-13.578 14.94-13.578h101.853v-15c0-2.761-2.239-5-5-5h-139.063c-1.929 12.385-2.937 25.074-2.937 38 0 34.073 6.962 66.518 19.531 96h21.512c-7.804-23.928-12.043-49.467-12.043-76z" fill="#e8b800"/><g><circle cx="318.5" cy="190.5" fill="#c57a44" r="9.5"/></g><g><circle cx="303.5" cy="400.5" fill="#c57a44" r="9.5"/></g><g><circle cx="211.5" cy="362.5" fill="#c57a44" r="9.5"/></g><g><circle cx="260.5" cy="380.5" fill="#d88a55" r="11.5"/></g><g><circle cx="219.5" cy="167.5" fill="#c57a44" r="9.5"/></g><g><circle cx="265.5" cy="432.5" fill="#c57a44" r="9.5"/></g><g><circle cx="356.5" cy="366.5" fill="#d88a55" r="9.5"/></g><g><path d="m265.616 206c-5.507 0-10.145 3.725-11.53 8.794-.436 1.597.835 3.158 2.491 3.158h18.077c1.656 0 2.928-1.561 2.491-3.158-1.384-5.069-6.021-8.794-11.529-8.794z" fill="#d88a55"/></g><g><path d="m296.616 236c-5.507 0-10.145 3.725-11.53 8.794-.436 1.597.835 3.158 2.491 3.158h18.077c1.656 0 2.928-1.561 2.491-3.158-1.384-5.069-6.021-8.794-11.529-8.794z" fill="#d88a55"/></g><g><path d="m238.401 231.488c-5.507 0-10.145 3.725-11.53 8.794-.436 1.597.835 3.158 2.491 3.158h18.077c1.656 0 2.928-1.561 2.491-3.158-1.384-5.069-6.021-8.794-11.529-8.794z" fill="#d88a55"/></g></g></svg>